<svg width="64" height="64" viewBox="0 0 64 64" fill="none" xmlns="http://www.w3.org/2000/svg">
<path d="M64 32C64 49.6731 49.6731 64 32 64C14.3269 64 0 49.6731 0 32C0 14.3269 14.3269 0 32 0C49.6731 0 64 14.3269 64 32Z" fill="url(#paint0_linear)"/>
<path d="M32 31.936H64V54.4C64 59.7019 59.702 64 54.4 64H32V31.936Z" fill="url(#paint1_linear)"/>
<path d="M10.5125 22.8751C10.5125 21.4817 11.6421 20.3522 13.0355 20.3522H28.2576C29.651 20.3522 30.7805 21.4817 30.7805 22.8751C30.7805 24.2685 29.651 25.3981 28.2576 25.3981H13.0355C11.6421 25.3981 10.5125 24.2685 10.5125 22.8751Z" fill="white"/>
<path d="M33.3035 22.8751C33.3035 21.4817 34.4331 20.3522 35.8265 20.3522H51.0486C52.442 20.3522 53.5716 21.4817 53.5716 22.8751C53.5716 24.2685 52.442 25.3981 51.0486 25.3981H35.8265C34.4331 25.3981 33.3035 24.2685 33.3035 22.8751Z" fill="white"/>
<path d="M10.5125 32.1262C10.5125 30.7327 11.6421 29.6031 13.0355 29.6031H28.2576C29.651 29.6031 30.7805 30.7327 30.7805 32.1262C30.7805 33.5196 29.651 34.6492 28.2576 34.6492H13.0355C11.6421 34.6492 10.5125 33.5196 10.5125 32.1262Z" fill="white"/>
<path d="M33.3035 32.1262C33.3035 30.7327 34.4331 29.6031 35.8265 29.6031H40.9566C42.3501 29.6031 43.4796 30.7327 43.4796 32.1262C43.4796 33.5196 42.3501 34.6492 40.9566 34.6492H35.8265C34.4331 34.6492 33.3035 33.5196 33.3035 32.1262Z" fill="white"/>
<path d="M10.5125 41.3771C10.5125 39.9837 11.6421 38.8541 13.0355 38.8541H28.2576C29.651 38.8541 30.7805 39.9837 30.7805 41.3771C30.7805 42.7705 29.651 43.9001 28.2576 43.9001H13.0355C11.6421 43.9001 10.5125 42.7705 10.5125 41.3771Z" fill="white"/>
<defs>
<linearGradient id="paint0_linear" x1="64" y1="0.577404" x2="1.92156" y2="63.876" gradientUnits="userSpaceOnUse">
<stop stop-color="#0085FF"/>
<stop offset="1" stop-color="#00FFD1"/>
</linearGradient>
<linearGradient id="paint1_linear" x1="64" y1="0.577376" x2="1.92156" y2="63.8759" gradientUnits="userSpaceOnUse">
<stop stop-color="#0085FF"/>
<stop offset="1" stop-color="#00FFD1"/>
</linearGradient>
</defs>
</svg>
